<mxfile host="app.diagrams.net" modified="2020-09-19T09:28:01.408Z" agent="5.0 (X11; Fedora; Linux x86_64) AppleWebKit/537.36 (KHTML, like Gecko) Chrome/83.0.4103.116 Safari/537.36" etag="BuPCGKtL2yzTjEqCfZzl" version="13.7.3" type="github">
  <diagram id="hxKLe8-lmR5lqBm9ec5w" name="Page-1">
    <mxGraphModel dx="1422" dy="775" grid="1" gridSize="10" guides="1" tooltips="1" connect="1" arrows="1" fold="1" page="1" pageScale="1" pageWidth="827" pageHeight="1169" background="none" math="0" shadow="0">
      <root>
        <mxCell id="0" />
        <mxCell id="1" parent="0" />
        <mxCell id="iHoyFPO_ZjTq_ncpUgUo-5" value="CATEGORIE" style="swimlane;fontStyle=0;childLayout=stackLayout;horizontal=1;startSize=26;fillColor=none;horizontalStack=0;resizeParent=1;resizeParentMax=0;resizeLast=0;collapsible=1;marginBottom=0;" vertex="1" parent="1">
          <mxGeometry x="540" y="120" width="140" height="104" as="geometry" />
        </mxCell>
        <mxCell id="iHoyFPO_ZjTq_ncpUgUo-6" value="+ id : int" style="text;strokeColor=none;fillColor=none;align=left;verticalAlign=top;spacingLeft=4;spacingRight=4;overflow=hidden;rotatable=0;points=[[0,0.5],[1,0.5]];portConstraint=eastwest;" vertex="1" parent="iHoyFPO_ZjTq_ncpUgUo-5">
          <mxGeometry y="26" width="140" height="26" as="geometry" />
        </mxCell>
        <mxCell id="iHoyFPO_ZjTq_ncpUgUo-7" value="+ type : char" style="text;strokeColor=none;fillColor=none;align=left;verticalAlign=top;spacingLeft=4;spacingRight=4;overflow=hidden;rotatable=0;points=[[0,0.5],[1,0.5]];portConstraint=eastwest;" vertex="1" parent="iHoyFPO_ZjTq_ncpUgUo-5">
          <mxGeometry y="52" width="140" height="26" as="geometry" />
        </mxCell>
        <mxCell id="iHoyFPO_ZjTq_ncpUgUo-8" value="+ visuel : char" style="text;strokeColor=none;fillColor=none;align=left;verticalAlign=top;spacingLeft=4;spacingRight=4;overflow=hidden;rotatable=0;points=[[0,0.5],[1,0.5]];portConstraint=eastwest;" vertex="1" parent="iHoyFPO_ZjTq_ncpUgUo-5">
          <mxGeometry y="78" width="140" height="26" as="geometry" />
        </mxCell>
        <mxCell id="iHoyFPO_ZjTq_ncpUgUo-1" value="PRODUIT" style="swimlane;fontStyle=0;childLayout=stackLayout;horizontal=1;startSize=26;fillColor=none;horizontalStack=0;resizeParent=1;resizeParentMax=0;resizeLast=0;collapsible=1;marginBottom=0;" vertex="1" parent="1">
          <mxGeometry x="120" y="120" width="140" height="182" as="geometry" />
        </mxCell>
        <mxCell id="iHoyFPO_ZjTq_ncpUgUo-2" value="+ id : int" style="text;strokeColor=none;fillColor=none;align=left;verticalAlign=top;spacingLeft=4;spacingRight=4;overflow=hidden;rotatable=0;points=[[0,0.5],[1,0.5]];portConstraint=eastwest;" vertex="1" parent="iHoyFPO_ZjTq_ncpUgUo-1">
          <mxGeometry y="26" width="140" height="26" as="geometry" />
        </mxCell>
        <mxCell id="iHoyFPO_ZjTq_ncpUgUo-3" value="+ nom : char" style="text;strokeColor=none;fillColor=none;align=left;verticalAlign=top;spacingLeft=4;spacingRight=4;overflow=hidden;rotatable=0;points=[[0,0.5],[1,0.5]];portConstraint=eastwest;" vertex="1" parent="iHoyFPO_ZjTq_ncpUgUo-1">
          <mxGeometry y="52" width="140" height="26" as="geometry" />
        </mxCell>
        <mxCell id="iHoyFPO_ZjTq_ncpUgUo-4" value="+ prenom : char" style="text;strokeColor=none;fillColor=none;align=left;verticalAlign=top;spacingLeft=4;spacingRight=4;overflow=hidden;rotatable=0;points=[[0,0.5],[1,0.5]];portConstraint=eastwest;" vertex="1" parent="iHoyFPO_ZjTq_ncpUgUo-1">
          <mxGeometry y="78" width="140" height="26" as="geometry" />
        </mxCell>
        <mxCell id="iHoyFPO_ZjTq_ncpUgUo-31" value="+ description : char" style="text;strokeColor=none;fillColor=none;align=left;verticalAlign=top;spacingLeft=4;spacingRight=4;overflow=hidden;rotatable=0;points=[[0,0.5],[1,0.5]];portConstraint=eastwest;" vertex="1" parent="iHoyFPO_ZjTq_ncpUgUo-1">
          <mxGeometry y="104" width="140" height="26" as="geometry" />
        </mxCell>
        <mxCell id="iHoyFPO_ZjTq_ncpUgUo-32" value="+ tarif : double" style="text;strokeColor=none;fillColor=none;align=left;verticalAlign=top;spacingLeft=4;spacingRight=4;overflow=hidden;rotatable=0;points=[[0,0.5],[1,0.5]];portConstraint=eastwest;" vertex="1" parent="iHoyFPO_ZjTq_ncpUgUo-1">
          <mxGeometry y="130" width="140" height="26" as="geometry" />
        </mxCell>
        <mxCell id="iHoyFPO_ZjTq_ncpUgUo-33" value="+ id_categ : int" style="text;strokeColor=none;fillColor=none;align=left;verticalAlign=top;spacingLeft=4;spacingRight=4;overflow=hidden;rotatable=0;points=[[0,0.5],[1,0.5]];portConstraint=eastwest;" vertex="1" parent="iHoyFPO_ZjTq_ncpUgUo-1">
          <mxGeometry y="156" width="140" height="26" as="geometry" />
        </mxCell>
        <mxCell id="iHoyFPO_ZjTq_ncpUgUo-17" value="" style="endArrow=none;html=1;edgeStyle=orthogonalEdgeStyle;exitX=1;exitY=0.5;exitDx=0;exitDy=0;entryX=0;entryY=0.5;entryDx=0;entryDy=0;" edge="1" parent="1" source="iHoyFPO_ZjTq_ncpUgUo-10" target="iHoyFPO_ZjTq_ncpUgUo-14">
          <mxGeometry relative="1" as="geometry">
            <mxPoint x="260" y="350" as="sourcePoint" />
            <mxPoint x="520" y="430" as="targetPoint" />
            <Array as="points">
              <mxPoint x="260" y="450" />
            </Array>
          </mxGeometry>
        </mxCell>
        <mxCell id="iHoyFPO_ZjTq_ncpUgUo-18" value="&lt;font style=&quot;font-size: 18px&quot;&gt;*&lt;/font&gt;" style="edgeLabel;resizable=0;html=1;align=left;verticalAlign=bottom;" connectable="0" vertex="1" parent="iHoyFPO_ZjTq_ncpUgUo-17">
          <mxGeometry x="-1" relative="1" as="geometry" />
        </mxCell>
        <mxCell id="iHoyFPO_ZjTq_ncpUgUo-19" value="&lt;font style=&quot;font-size: 18px&quot;&gt;1&lt;/font&gt;" style="edgeLabel;resizable=0;html=1;align=right;verticalAlign=bottom;" connectable="0" vertex="1" parent="iHoyFPO_ZjTq_ncpUgUo-17">
          <mxGeometry x="1" relative="1" as="geometry" />
        </mxCell>
        <mxCell id="iHoyFPO_ZjTq_ncpUgUo-20" value="" style="endArrow=none;html=1;edgeStyle=orthogonalEdgeStyle;entryX=-0.007;entryY=0.154;entryDx=0;entryDy=0;entryPerimeter=0;" edge="1" parent="1" target="iHoyFPO_ZjTq_ncpUgUo-6">
          <mxGeometry relative="1" as="geometry">
            <mxPoint x="260" y="150" as="sourcePoint" />
            <mxPoint x="538.04" y="150.0039999999999" as="targetPoint" />
            <Array as="points" />
          </mxGeometry>
        </mxCell>
        <mxCell id="iHoyFPO_ZjTq_ncpUgUo-21" value="&lt;font style=&quot;font-size: 18px&quot;&gt;1/*&lt;/font&gt;" style="edgeLabel;resizable=0;html=1;align=left;verticalAlign=bottom;" connectable="0" vertex="1" parent="iHoyFPO_ZjTq_ncpUgUo-20">
          <mxGeometry x="-1" relative="1" as="geometry" />
        </mxCell>
        <mxCell id="iHoyFPO_ZjTq_ncpUgUo-22" value="&lt;font style=&quot;font-size: 18px&quot;&gt;1&lt;/font&gt;" style="edgeLabel;resizable=0;html=1;align=right;verticalAlign=bottom;" connectable="0" vertex="1" parent="iHoyFPO_ZjTq_ncpUgUo-20">
          <mxGeometry x="1" relative="1" as="geometry" />
        </mxCell>
        <mxCell id="iHoyFPO_ZjTq_ncpUgUo-26" value="" style="endArrow=none;html=1;edgeStyle=orthogonalEdgeStyle;entryX=0.5;entryY=0;entryDx=0;entryDy=0;exitX=0.5;exitY=1.038;exitDx=0;exitDy=0;exitPerimeter=0;" edge="1" parent="1" source="iHoyFPO_ZjTq_ncpUgUo-33" target="iHoyFPO_ZjTq_ncpUgUo-9">
          <mxGeometry relative="1" as="geometry">
            <mxPoint x="190" y="310" as="sourcePoint" />
            <mxPoint x="193" y="300" as="targetPoint" />
          </mxGeometry>
        </mxCell>
        <mxCell id="iHoyFPO_ZjTq_ncpUgUo-27" value="*" style="edgeLabel;resizable=0;html=1;align=left;verticalAlign=bottom;fontSize=18;" connectable="0" vertex="1" parent="iHoyFPO_ZjTq_ncpUgUo-26">
          <mxGeometry x="-1" relative="1" as="geometry">
            <mxPoint x="-20" y="25" as="offset" />
          </mxGeometry>
        </mxCell>
        <mxCell id="iHoyFPO_ZjTq_ncpUgUo-28" value="1" style="edgeLabel;resizable=0;html=1;align=right;verticalAlign=bottom;fontSize=18;" connectable="0" vertex="1" parent="iHoyFPO_ZjTq_ncpUgUo-26">
          <mxGeometry x="1" relative="1" as="geometry">
            <mxPoint x="-10" as="offset" />
          </mxGeometry>
        </mxCell>
        <mxCell id="iHoyFPO_ZjTq_ncpUgUo-9" value="COMMANDE" style="swimlane;fontStyle=0;childLayout=stackLayout;horizontal=1;startSize=26;fillColor=none;horizontalStack=0;resizeParent=1;resizeParentMax=0;resizeLast=0;collapsible=1;marginBottom=0;" vertex="1" parent="1">
          <mxGeometry x="120" y="410" width="140" height="104" as="geometry" />
        </mxCell>
        <mxCell id="iHoyFPO_ZjTq_ncpUgUo-10" value="Â + id : int" style="text;strokeColor=none;fillColor=none;align=left;verticalAlign=top;spacingLeft=4;spacingRight=4;overflow=hidden;rotatable=0;points=[[0,0.5],[1,0.5]];portConstraint=eastwest;" vertex="1" parent="iHoyFPO_ZjTq_ncpUgUo-9">
          <mxGeometry y="26" width="140" height="26" as="geometry" />
        </mxCell>
        <mxCell id="iHoyFPO_ZjTq_ncpUgUo-11" value="+ nom : char" style="text;strokeColor=none;fillColor=none;align=left;verticalAlign=top;spacingLeft=4;spacingRight=4;overflow=hidden;rotatable=0;points=[[0,0.5],[1,0.5]];portConstraint=eastwest;" vertex="1" parent="iHoyFPO_ZjTq_ncpUgUo-9">
          <mxGeometry y="52" width="140" height="26" as="geometry" />
        </mxCell>
        <mxCell id="iHoyFPO_ZjTq_ncpUgUo-12" value="+ prenom : char" style="text;strokeColor=none;fillColor=none;align=left;verticalAlign=top;spacingLeft=4;spacingRight=4;overflow=hidden;rotatable=0;points=[[0,0.5],[1,0.5]];portConstraint=eastwest;" vertex="1" parent="iHoyFPO_ZjTq_ncpUgUo-9">
          <mxGeometry y="78" width="140" height="26" as="geometry" />
        </mxCell>
        <mxCell id="iHoyFPO_ZjTq_ncpUgUo-13" value="CLIENT" style="swimlane;fontStyle=0;childLayout=stackLayout;horizontal=1;startSize=26;fillColor=none;horizontalStack=0;resizeParent=1;resizeParentMax=0;resizeLast=0;collapsible=1;marginBottom=0;" vertex="1" parent="1">
          <mxGeometry x="550" y="410" width="140" height="104" as="geometry" />
        </mxCell>
        <mxCell id="iHoyFPO_ZjTq_ncpUgUo-14" value="+ id : int" style="text;strokeColor=none;fillColor=none;align=left;verticalAlign=top;spacingLeft=4;spacingRight=4;overflow=hidden;rotatable=0;points=[[0,0.5],[1,0.5]];portConstraint=eastwest;" vertex="1" parent="iHoyFPO_ZjTq_ncpUgUo-13">
          <mxGeometry y="26" width="140" height="26" as="geometry" />
        </mxCell>
        <mxCell id="iHoyFPO_ZjTq_ncpUgUo-15" value="+ nom : char" style="text;strokeColor=none;fillColor=none;align=left;verticalAlign=top;spacingLeft=4;spacingRight=4;overflow=hidden;rotatable=0;points=[[0,0.5],[1,0.5]];portConstraint=eastwest;" vertex="1" parent="iHoyFPO_ZjTq_ncpUgUo-13">
          <mxGeometry y="52" width="140" height="26" as="geometry" />
        </mxCell>
        <mxCell id="iHoyFPO_ZjTq_ncpUgUo-16" value="+ prenom : char" style="text;strokeColor=none;fillColor=none;align=left;verticalAlign=top;spacingLeft=4;spacingRight=4;overflow=hidden;rotatable=0;points=[[0,0.5],[1,0.5]];portConstraint=eastwest;" vertex="1" parent="iHoyFPO_ZjTq_ncpUgUo-13">
          <mxGeometry y="78" width="140" height="26" as="geometry" />
        </mxCell>
      </root>
    </mxGraphModel>
  </diagram>
</mxfile>
